M48
FMAT,2
METRIC,TZ
T01C1.0
T02C0.8
T03C1.3
%
T01
X1980000Y914000
X4520000Y914000
X1980000Y1168000
X4520000Y1168000
X1980000Y1422000
X4520000Y1422000
X1980000Y1676000
X4520000Y1676000
X1980000Y1930000
X4520000Y1930000
X1980000Y2184000
X4520000Y2184000
X1980000Y2438000
X4520000Y2438000
X1980000Y2692000
X4520000Y2692000
X1980000Y2946000
X4520000Y2946000
X1980000Y3200000
X4520000Y3200000
X1980000Y3454000
X4520000Y3454000
X1980000Y3708000
X4520000Y3708000
X1980000Y3962000
X4520000Y3962000
X1980000Y4216000
X4520000Y4216000
X1980000Y4470000
X4520000Y4470000
X1980000Y4724000
X4520000Y4724000
X1980000Y4978000
X4520000Y4978000
X1980000Y5232000
X4520000Y5232000
X1980000Y5486000
X4520000Y5486000
X300000Y2000000
X300000Y2254000
X300000Y2508000
X300000Y2762000
X300000Y3016000
X300000Y3270000
X300000Y3900000
X300000Y4154000
X6200000Y2000000
X6200000Y2254000
X6200000Y2508000
X6200000Y2762000
X6200000Y3016000
X6200000Y3270000
X6200000Y3524000
X1500000Y300000
X1754000Y300000
X2008000Y300000
X2262000Y300000
X3500000Y300000
X3754000Y300000
X4008000Y300000
X4262000Y300000
T0
T03
X6200000Y5200000
X6708000Y5200000
T0
T02
X1500000Y6200000
X1700000Y6200000
T0
T01
X4000000Y6200000
X4254000Y6200000
X4508000Y6200000
X4762000Y6200000
T0
M30