G04 ESP32 Voice Carrier*
%FSLAX26Y26*%
%MOMM*%
%ADD10C,2.2*%
D10*
X1980000Y914000D03*
%ADD11C,2.2*%
D11*
X4520000Y914000D03*
%ADD12C,2.2*%
D12*
X1980000Y1168000D03*
%ADD13C,2.2*%
D13*
X4520000Y1168000D03*
%ADD14C,2.2*%
D14*
X1980000Y1422000D03*
%ADD15C,2.2*%
D15*
X4520000Y1422000D03*
%ADD16C,2.2*%
D16*
X1980000Y1676000D03*
%ADD17C,2.2*%
D17*
X4520000Y1676000D03*
%ADD18C,2.2*%
D18*
X1980000Y1930000D03*
%ADD19C,2.2*%
D19*
X4520000Y1930000D03*
%ADD20C,2.2*%
D20*
X1980000Y2184000D03*
%ADD21C,2.2*%
D21*
X4520000Y2184000D03*
%ADD22C,2.2*%
D22*
X1980000Y2438000D03*
%ADD23C,2.2*%
D23*
X4520000Y2438000D03*
%ADD24C,2.2*%
D24*
X1980000Y2692000D03*
%ADD25C,2.2*%
D25*
X4520000Y2692000D03*
%ADD26C,2.2*%
D26*
X1980000Y2946000D03*
%ADD27C,2.2*%
D27*
X4520000Y2946000D03*
%ADD28C,2.2*%
D28*
X1980000Y3200000D03*
%ADD29C,2.2*%
D29*
X4520000Y3200000D03*
%ADD30C,2.2*%
D30*
X1980000Y3454000D03*
%ADD31C,2.2*%
D31*
X4520000Y3454000D03*
%ADD32C,2.2*%
D32*
X1980000Y3708000D03*
%ADD33C,2.2*%
D33*
X4520000Y3708000D03*
%ADD34C,2.2*%
D34*
X1980000Y3962000D03*
%ADD35C,2.2*%
D35*
X4520000Y3962000D03*
%ADD36C,2.2*%
D36*
X1980000Y4216000D03*
%ADD37C,2.2*%
D37*
X4520000Y4216000D03*
%ADD38C,2.2*%
D38*
X1980000Y4470000D03*
%ADD39C,2.2*%
D39*
X4520000Y4470000D03*
%ADD40C,2.2*%
D40*
X1980000Y4724000D03*
%ADD41C,2.2*%
D41*
X4520000Y4724000D03*
%ADD42C,2.2*%
D42*
X1980000Y4978000D03*
%ADD43C,2.2*%
D43*
X4520000Y4978000D03*
%ADD44C,2.2*%
D44*
X1980000Y5232000D03*
%ADD45C,2.2*%
D45*
X4520000Y5232000D03*
%ADD46C,2.2*%
D46*
X1980000Y5486000D03*
%ADD47C,2.2*%
D47*
X4520000Y5486000D03*
%ADD48C,2.2*%
D48*
X300000Y2000000D03*
%ADD49C,2.2*%
D49*
X300000Y2254000D03*
%ADD50C,2.2*%
D50*
X300000Y2508000D03*
%ADD51C,2.2*%
D51*
X300000Y2762000D03*
%ADD52C,2.2*%
D52*
X300000Y3016000D03*
%ADD53C,2.2*%
D53*
X300000Y3270000D03*
%ADD54C,2.2*%
D54*
X300000Y3900000D03*
%ADD55C,2.2*%
D55*
X300000Y4154000D03*
%ADD56C,2.2*%
D56*
X6200000Y2000000D03*
%ADD57C,2.2*%
D57*
X6200000Y2254000D03*
%ADD58C,2.2*%
D58*
X6200000Y2508000D03*
%ADD59C,2.2*%
D59*
X6200000Y2762000D03*
%ADD60C,2.2*%
D60*
X6200000Y3016000D03*
%ADD61C,2.2*%
D61*
X6200000Y3270000D03*
%ADD62C,2.2*%
D62*
X6200000Y3524000D03*
%ADD63C,2.2*%
D63*
X1500000Y300000D03*
%ADD64C,2.2*%
D64*
X1754000Y300000D03*
%ADD65C,2.2*%
D65*
X2008000Y300000D03*
%ADD66C,2.2*%
D66*
X2262000Y300000D03*
%ADD67C,2.2*%
D67*
X3500000Y300000D03*
%ADD68C,2.2*%
D68*
X3754000Y300000D03*
%ADD69C,2.2*%
D69*
X4008000Y300000D03*
%ADD70C,2.2*%
D70*
X4262000Y300000D03*
%ADD71C,3.0*%
D71*
X6200000Y5200000D03*
D71*
X6708000Y5200000D03*
%ADD72C,2.5*%
D72*
X1500000Y6200000D03*
D72*
X1700000Y6200000D03*
%ADD73C,2.2*%
D73*
X4000000Y6200000D03*
%ADD74C,2.2*%
D74*
X4254000Y6200000D03*
%ADD75C,2.2*%
D75*
X4508000Y6200000D03*
%ADD76C,2.2*%
D76*
X4762000Y6200000D03*
M02*